<svg data-v-423bf9ae="" xmlns="http://www.w3.org/2000/svg" viewBox="0 0 747 112" class="iconLeft"><!----><!----><!----><g data-v-423bf9ae="" id="8074db3f-33c1-42a7-9614-614cbdeb4bfa" fill="white" transform="matrix(4.5696880300864295,0,0,4.5696880300864295,130.43913740244636,6.8333145312128565)"><path d="M3.35 10.85L3.35 10.85L3.35 10.85Q3.35 9.34 3.21 7.45L3.21 7.45L3.21 7.46L3.21 7.46Q3.14 7.22 2.80 7.22L2.80 7.22L2.74 7.22L2.74 7.22Q2.31 7.22 1.44 7.38L1.44 7.38L1.44 7.38Q0.57 7.53 0.14 7.53L0.14 7.53L0.14 7.53Q0.14 6.31 1.22 5.96L1.22 5.96L1.22 5.96Q2.03 5.82 3.25 5.59L3.25 5.59L3.25 5.59Q3.61 5.52 4.59 4.98L4.59 4.98L4.59 4.98Q5.87 4.30 6.83 4.30L6.83 4.30L6.83 4.30Q6.83 4.55 6.59 4.84L6.59 4.84L6.59 4.84Q6.36 5.14 6.36 5.24L6.36 5.24L6.36 5.24Q6.36 5.56 6.59 5.59L6.59 5.59L8.53 5.85L8.53 5.85Q8.79 5.89 9.06 6.36L9.06 6.36L9.06 6.36Q9.28 6.79 9.28 7.10L9.28 7.10L9.28 7.10Q9.28 7.39 9.14 7.48L9.14 7.48L9.14 7.48Q9.06 7.53 8.72 7.53L8.72 7.53L8.67 7.53L8.67 7.53Q8.22 7.53 7.32 7.38L7.32 7.38L7.32 7.38Q6.43 7.22 5.98 7.22L5.98 7.22L5.91 7.22L5.91 7.22Q5.67 7.22 5.67 7.35L5.67 7.35L5.67 7.35Q5.67 7.39 5.68 7.43L5.68 7.43L5.68 7.43Q5.57 8.26 5.54 9.38L5.54 9.38L5.54 9.38Q5.53 9.95 5.53 11.80L5.53 11.80L5.53 11.80Q5.53 13.87 5.54 14.24L5.54 14.24L5.54 14.24Q5.42 14.88 4.38 15.39L4.38 15.39L4.38 15.39Q3.47 15.83 2.77 15.83L2.77 15.83L2.77 15.83Q2.77 15.50 2.94 14.97L2.94 14.97L2.94 14.98L2.94 14.98Q3.35 13.76 3.35 10.85ZM10.56 13.69L10.56 6.55L10.56 6.55Q10.37 6.09 10.28 5.57L10.28 5.57L10.26 5.40L10.26 5.40Q10.26 5.38 10.28 5.29L10.28 5.29L12.80 4.17L13.24 4.17L13.24 4.17Q13.24 4.91 13.08 6.38L13.08 6.38L13.08 6.38Q12.92 7.84 12.92 8.58L12.92 8.58L12.92 8.58Q12.92 8.81 12.92 8.81L12.92 8.81L12.92 8.81Q12.94 9.21 12.94 9.18L12.94 9.18L12.94 9.63L13.08 9.77L13.08 9.77Q13.87 9.16 14.39 8.92L14.39 8.92L14.39 8.92Q15.11 8.58 15.90 8.58L15.90 8.58L15.90 8.58Q15.90 8.93 15.74 9.60L15.74 9.60L15.74 9.60Q15.58 10.26 15.58 10.61L15.58 10.61L15.58 10.61Q15.58 11.37 15.88 12.29L15.88 12.29L15.88 12.29Q15.95 12.52 16.16 12.57L16.16 12.57L16.16 12.57Q16.32 12.50 16.44 12.43L16.44 12.43L16.44 12.43Q16.58 12.31 16.87 12.08L16.87 12.08L16.87 12.08Q17.01 11.97 17.29 11.97L17.29 11.97L17.29 11.97Q17.29 13.20 16.81 14.17L16.81 14.17L16.81 14.17Q16.21 15.40 15.11 15.40L15.11 15.40L15.11 15.40Q15.02 15.40 14.86 15.39L14.86 15.39L14.86 15.39Q14.70 15.37 14.62 15.37L14.62 15.37L14.62 15.37Q13.82 14.78 13.54 13.41L13.54 13.41L13.54 13.41Q13.38 12.66 13.36 11.17L13.36 11.17L13.36 11.17Q12.94 11.68 12.94 12.66L12.94 12.66L12.94 14.25L12.94 14.25Q12.81 15.22 11.85 15.93L11.85 15.93L11.85 15.93Q10.89 16.65 9.90 16.65L9.90 16.65L9.90 16.65Q9.90 16.14 10.23 15.17L10.23 15.17L10.23 15.17Q10.56 14.20 10.56 13.69L10.56 13.69ZM17.81 12.82L17.81 12.82L17.81 12.82Q17.81 11.07 19.14 9.75L19.14 9.75L19.14 9.75Q20.48 8.43 22.23 8.43L22.23 8.43L22.23 8.43Q22.89 8.43 23.16 8.68L23.16 8.68L23.16 8.68Q23.44 8.93 23.44 9.58L23.44 9.58L23.44 9.58Q23.44 10.50 22.39 11.28L22.39 11.28L22.39 11.28Q21.50 11.82 20.62 12.36L20.62 12.36L20.48 12.50L20.48 12.50Q20.48 12.53 20.47 12.57L20.47 12.57L20.47 12.57Q20.47 12.80 20.79 13.05L20.79 13.05L20.79 13.05Q21.06 13.26 21.32 13.34L21.32 13.34L21.39 13.34L21.39 13.34Q21.81 13.34 22.68 12.69L22.68 12.69L22.68 12.69Q23.55 12.04 23.73 12.04L23.73 12.04L23.73 12.04Q23.73 13.23 22.50 14.34L22.50 14.34L22.50 14.34Q21.27 15.46 20.06 15.46L20.06 15.46L20.06 15.46Q19.01 15.46 18.38 14.64L18.38 14.64L18.38 14.64Q17.81 13.90 17.81 12.82ZM20.34 10.12L20.34 10.12L20.34 10.12Q19.84 10.81 19.84 11.56L19.84 11.56L19.84 11.56Q20.12 11.56 20.52 11.14L20.52 11.14L20.52 11.14Q20.92 10.71 20.92 10.42L20.92 10.42L20.92 10.42Q20.92 10.11 20.55 10.11L20.55 10.11L20.45 10.11L20.45 10.11Q20.36 10.12 20.34 10.12ZM29.95 10.22L29.95 10.22L29.95 10.22Q29.95 8.97 29.93 8.75L29.93 8.75L29.93 8.75Q29.89 8.08 29.65 7.32L29.65 7.32L29.65 7.32Q29.53 7.13 29.37 6.90L29.37 6.90L29.36 6.75L29.36 6.75Q29.36 6.44 32.31 5.49L32.31 5.49L32.31 5.49Q32.61 5.49 32.61 5.71L32.61 5.71L32.61 5.71Q32.61 5.78 32.47 5.96L32.47 5.96L32.47 5.96Q32.33 6.15 32.31 6.20L32.31 6.20L32.31 6.20Q32.16 8.18 32.16 9.03L32.16 9.03L32.16 9.03Q32.16 9.09 32.17 9.42L32.17 9.42L32.31 9.56L32.52 9.56L32.52 9.56Q32.61 9.56 32.70 9.58L32.70 9.58L32.82 9.58L32.82 9.58Q33.70 9.58 33.89 9.49L33.89 9.49L33.89 9.49Q34.29 9.32 34.29 8.65L34.29 8.65L34.29 8.65Q34.29 8.27 34.13 7.53L34.13 7.53L34.13 7.53Q33.98 6.78 33.98 6.40L33.98 6.40L33.98 6.40Q33.98 5.96 35.29 5.42L35.29 5.42L35.29 5.42Q36.48 4.93 37.10 4.93L37.10 4.93L37.10 4.93Q37.10 5.40 36.88 6.34L36.88 6.34L36.88 6.34Q36.65 7.27 36.65 7.74L36.65 7.74L36.65 14.60L36.37 14.88L34.41 15.72L34.41 15.72Q33.54 16.20 33.26 16.20L33.26 16.20L33.26 16.20Q33.26 15.90 33.50 15.47L33.50 15.47L33.50 15.47Q33.80 14.92 33.85 14.74L33.85 14.74L33.85 14.74Q34.27 13.24 34.27 11.30L34.27 11.30L34.27 11.30Q34.27 11.10 33.88 11.10L33.88 11.10L33.57 11.10L33.57 11.10Q32.59 11.10 32.31 11.24L32.31 11.24L32.10 11.38L32.10 15.16L30.91 15.86L30.91 15.86Q30.48 16.16 30.03 16.44L30.03 16.44L30.03 16.44Q29.50 16.76 29.05 16.76L29.05 16.76L29.05 16.76Q29.05 16.38 29.32 15.68L29.32 15.68L29.32 15.68Q29.61 14.91 29.65 14.60L29.65 14.60L29.65 14.60Q29.90 12.80 29.93 11.80L29.93 11.80L29.93 11.80Q29.95 11.33 29.95 10.22ZM37.97 12.45L37.97 12.45L37.97 12.45Q37.97 10.70 39.05 9.34L39.05 9.34L39.05 9.34Q40.19 7.87 41.90 7.87L41.90 7.87L41.90 7.87Q43.29 7.87 43.97 8.85L43.97 8.85L43.97 8.85Q44.58 9.70 44.58 11.13L44.58 11.13L44.58 11.13Q44.58 12.68 43.64 14L43.64 14L43.64 14Q42.60 15.46 41.06 15.46L41.06 15.46L41.06 15.46Q39.91 15.46 38.94 14.52L38.94 14.52L38.94 14.52Q37.97 13.58 37.97 12.45ZM39.91 11.28L39.91 11.28L39.91 11.28Q39.91 12.46 41.48 13.76L41.48 13.76L41.66 13.76L41.66 13.76Q41.80 13.78 41.83 13.78L41.83 13.78L41.83 13.78Q42.32 13.78 42.56 13.26L42.56 13.26L42.56 13.26Q42.74 12.87 42.74 12.31L42.74 12.31L42.74 12.31Q42.74 11.34 42.43 10.58L42.43 10.58L42.43 10.58Q42 9.53 41.19 9.53L41.19 9.53L41.19 9.53Q40.84 9.53 40.66 10.04L40.66 10.04L40.66 10.04Q40.60 10.30 40.46 10.84L40.46 10.84L40.46 10.84Q40.33 11.28 39.91 11.28ZM48.69 14.01L48.69 14.01L48.69 14.01Q48.58 14.01 48.55 14.04L48.55 14.04L48.55 14.04Q47.92 14.67 47.68 14.85L47.68 14.85L47.68 14.85Q47.08 15.32 46.58 15.32L46.58 15.32L46.58 15.32Q46.10 15.32 45.75 14.64L45.75 14.64L45.75 14.64Q45.46 14.07 45.46 13.57L45.46 13.57L45.46 13.57Q45.46 13.08 45.74 12.14L45.74 12.14L45.74 12.14Q46.02 11.20 46.02 10.71L46.02 10.71L46.02 10.71Q45.92 10.71 45.73 10.78L45.73 10.78L45.73 10.78Q45.54 10.85 45.44 10.85L45.44 10.85L45.44 10.85Q45.44 10.12 46.58 9.53L46.58 9.53L46.58 9.53Q46.96 9.34 48.27 8.86L48.27 8.86L48.41 8.86L48.41 8.86Q48.57 8.93 48.57 9.07L48.57 9.07L48.57 9.07Q48.57 9.11 48.55 9.14L48.55 9.14L48.55 9.14Q47.98 10.50 47.98 11.47L47.98 11.47L47.98 11.47Q47.98 12.29 48.13 12.64L48.13 12.64L48.13 12.64Q48.83 12.25 48.83 10.12L48.83 10.12L48.83 10.12Q49.32 9.46 50.17 8.99L50.17 8.99L50.17 8.99Q51.02 8.51 51.80 8.51L51.80 8.51L51.80 8.51Q51.80 8.95 51.50 9.91L51.50 9.91L51.50 9.91Q51.20 10.86 51.20 11.34L51.20 11.34L51.20 11.34Q51.20 12.66 51.70 12.66L51.70 12.66L51.70 12.66Q51.93 12.66 52.44 12.21L52.44 12.21L52.44 12.21Q52.95 11.77 53.20 11.77L53.20 11.77L53.20 11.77Q53.20 12.82 52.46 14.07L52.46 14.07L52.46 14.07Q51.63 15.46 50.65 15.46L50.65 15.46L50.65 15.46Q50.19 15.46 49.77 15.08L49.77 15.08L49.77 15.08Q49.59 14.91 49.15 14.39L49.15 14.39L49.15 14.39Q48.85 14.01 48.69 14.01ZM58.98 13.01L58.98 13.01L58.98 13.01Q58.98 12.14 57.99 11.52L57.99 11.52L57.99 11.52Q56.70 10.71 56.81 10.02L56.81 10.02L56.81 10.02Q56.87 9.70 57.27 9.35L57.27 9.35L57.27 9.35Q57.75 9.02 57.88 8.92L57.88 8.92L57.88 8.92Q58.17 8.67 58.21 8.44L58.21 8.44L58.21 8.44Q58.28 8.05 57.68 8.05L57.68 8.05L57.68 8.05Q56.69 8.05 55.54 8.82L55.54 8.82L55.54 8.82Q54.29 9.66 54.29 10.61L54.29 10.61L54.29 10.61Q54.29 11.28 55.10 11.83L55.10 11.83L55.10 11.83Q56.08 12.49 56.08 13.23L56.08 13.23L56.08 13.23Q56.08 14.08 55.05 14.66L55.05 14.66L55.05 14.66Q54.42 15.01 54.35 15.33L54.35 15.33L54.35 15.33Q54.26 15.75 55.16 15.75L55.16 15.75L55.16 15.75Q56.42 15.75 57.61 15.02L57.61 15.02L57.61 15.02Q58.98 14.20 58.98 13.01ZM59.96 12.82L59.96 12.82L59.96 12.82Q59.96 11.07 61.30 9.75L61.30 9.75L61.30 9.75Q62.64 8.43 64.39 8.43L64.39 8.43L64.39 8.43Q65.04 8.43 65.32 8.68L65.32 8.68L65.32 8.68Q65.59 8.93 65.59 9.58L65.59 9.58L65.59 9.58Q65.59 10.50 64.54 11.28L64.54 11.28L64.54 11.28Q63.66 11.82 62.78 12.36L62.78 12.36L62.64 12.50L62.64 12.50Q62.64 12.53 62.62 12.57L62.62 12.57L62.62 12.57Q62.62 12.80 62.94 13.05L62.94 13.05L62.94 13.05Q63.21 13.26 63.48 13.34L63.48 13.34L63.55 13.34L63.55 13.34Q63.97 13.34 64.83 12.69L64.83 12.69L64.83 12.69Q65.70 12.04 65.88 12.04L65.88 12.04L65.88 12.04Q65.88 13.23 64.65 14.34L64.65 14.34L64.65 14.34Q63.42 15.46 62.22 15.46L62.22 15.46L62.22 15.46Q61.17 15.46 60.54 14.64L60.54 14.64L60.54 14.64Q59.96 13.90 59.96 12.82ZM62.50 10.12L62.50 10.12L62.50 10.12Q61.99 10.81 61.99 11.56L61.99 11.56L61.99 11.56Q62.27 11.56 62.67 11.14L62.67 11.14L62.67 11.14Q63.07 10.71 63.07 10.42L63.07 10.42L63.07 10.42Q63.07 10.11 62.71 10.11L62.71 10.11L62.61 10.11L62.61 10.11Q62.51 10.12 62.50 10.12ZM71.22 12.45L71.22 12.45L71.22 12.45Q71.22 10.70 72.30 9.34L72.30 9.34L72.30 9.34Q73.44 7.87 75.15 7.87L75.15 7.87L75.15 7.87Q76.54 7.87 77.22 8.85L77.22 8.85L77.22 8.85Q77.83 9.70 77.83 11.13L77.83 11.13L77.83 11.13Q77.83 12.68 76.89 14L76.89 14L76.89 14Q75.85 15.46 74.31 15.46L74.31 15.46L74.31 15.46Q73.16 15.46 72.19 14.52L72.19 14.52L72.19 14.52Q71.22 13.58 71.22 12.45ZM73.16 11.28L73.16 11.28L73.16 11.28Q73.16 12.46 74.73 13.76L74.73 13.76L74.91 13.76L74.91 13.76Q75.05 13.78 75.08 13.78L75.08 13.78L75.08 13.78Q75.57 13.78 75.81 13.26L75.81 13.26L75.81 13.26Q75.99 12.87 75.99 12.31L75.99 12.31L75.99 12.31Q75.99 11.34 75.68 10.58L75.68 10.58L75.68 10.58Q75.25 9.53 74.44 9.53L74.44 9.53L74.44 9.53Q74.09 9.53 73.91 10.04L73.91 10.04L73.91 10.04Q73.85 10.30 73.71 10.84L73.71 10.84L73.71 10.84Q73.58 11.28 73.16 11.28ZM84.60 11.24L84.60 11.24L84.60 11.24Q84.07 11.24 82.49 11.12L82.49 11.12L82.49 11.19L82.49 11.19Q82.40 11.19 82.00 11.20L82.00 11.20L81.86 11.34L81.86 13.16L81.80 13.16L81.80 13.16Q81.80 14.07 81.82 14.27L81.82 14.27L81.82 14.27Q81.69 14.91 80.65 15.41L80.65 15.41L80.65 15.41Q79.74 15.86 79.04 15.86L79.04 15.86L79.04 15.86Q79.04 15.53 79.21 14.99L79.21 14.99L79.21 15.01L79.21 15.01Q79.56 13.96 79.60 11.45L79.60 11.45L79.60 11.45Q78.97 11.03 78.08 10.64L78.08 10.64L78.08 10.32L78.08 10.32Q78.48 10.32 78.92 10.22L78.92 10.22L78.92 10.22Q78.99 10.21 79.13 10.10L79.13 10.10L79.13 10.10Q79.27 10.00 79.27 9.94L79.27 9.94L79.27 5.88L79.27 5.88Q79.27 5.82 79.52 5.43L79.52 5.43L79.52 5.43Q79.69 5.15 79.90 4.90L79.90 4.90L79.90 4.90Q80.28 4.51 80.54 4.40L80.54 4.40L80.54 4.40Q80.81 4.30 81.37 4.30L81.37 4.30L81.37 4.30Q82.47 4.30 83.38 5.53L83.38 5.53L83.38 5.53Q84.21 6.65 84.21 7.84L84.21 7.84L83.82 7.84L82.42 6.44L82.42 6.44Q82.36 6.38 82.14 6.38L82.14 6.38L82.14 6.38Q81.65 6.38 81.65 7.48L81.65 7.48L81.65 7.48Q81.65 7.38 81.68 7.97L81.68 7.97L81.69 8.26L81.69 8.26Q81.69 8.65 81.72 9.10L81.72 9.10L81.86 9.24L81.86 9.24Q81.93 9.23 82.39 9.25L82.39 9.25L82.39 9.24L82.43 9.24L82.43 9.24Q82.46 9.25 82.47 9.25L82.47 9.25L82.47 9.25Q82.47 9.25 82.49 9.27L82.49 9.27L82.56 9.27L82.56 9.30L82.56 9.30Q83.05 9.51 83.78 10.14L83.78 10.14L83.78 10.14Q84.60 10.85 84.60 11.24ZM90.96 11.20L90.96 11.20L90.96 11.20Q90.96 9.13 90.94 8.90L90.94 8.90L90.94 8.90Q90.93 8.68 90.65 8.03L90.65 8.03L90.65 8.03Q90.37 7.38 90.37 7.28L90.37 7.28L90.37 7.28Q90.37 6.97 91.87 6.29L91.87 6.29L91.87 6.29Q93.28 5.64 93.72 5.64L93.72 5.64L93.72 5.64Q93.72 7.69 95.28 10.43L95.28 10.43L95.28 10.43Q95.40 10.63 95.56 10.71L95.56 10.71L95.56 10.71Q95.68 10.44 95.97 10.00L95.97 10.00L95.97 10.00Q96.33 9.45 96.40 9.31L96.40 9.31L96.40 9.31Q96.73 8.71 97.38 7.49L97.38 7.49L97.38 7.49Q97.61 7.08 99.11 6.59L99.11 6.59L99.11 6.59Q100.48 6.15 101.11 6.15L101.11 6.15L101.11 6.15Q101.11 6.44 100.81 6.65L100.81 6.65L100.81 6.65Q100.41 6.94 100.32 7.07L100.32 7.07L100.32 7.07Q99.90 7.71 99.90 9.51L99.90 9.51L99.90 9.51Q99.90 10.25 100.05 11.72L100.05 11.72L100.05 11.72Q100.20 13.19 100.20 13.93L100.20 13.93L100.20 13.93Q100.20 14.50 100.16 14.76L100.16 14.76L100.16 14.76Q100.07 15.26 99.76 15.47L99.76 15.47L99.76 15.47Q98.62 16.28 98.34 16.45L98.34 16.45L98.34 16.45Q97.37 17.02 96.75 17.02L96.75 17.02L96.75 17.02Q96.75 16.79 96.92 16.59L96.92 16.59L96.92 16.59Q97.17 16.30 97.24 16.17L97.24 16.17L97.24 16.17Q97.68 15.36 97.68 13.85L97.68 13.85L97.68 13.85Q97.68 12.14 97.52 10.29L97.52 10.29L97.52 10.29Q97.45 10.40 96.53 12.81L96.53 12.81L96.53 12.81Q95.72 14.92 95.49 14.92L95.49 14.92L95.49 14.92Q94.86 14.92 93.46 12.67L93.46 12.67L93.46 12.67Q93.07 12.05 92.76 11.41L92.76 11.41L92.64 11.41L92.64 11.41Q92.64 12.04 92.77 13.31L92.77 13.31L92.77 13.31Q92.90 14.57 92.90 15.20L92.90 15.20L92.90 15.20Q92.90 15.32 91.48 16.27L91.48 16.27L91.48 16.27Q90.06 17.22 89.80 17.22L89.80 17.22L89.80 17.22Q89.80 16.86 90.24 16.09L90.24 16.09L90.24 16.09Q90.75 15.23 90.80 14.91L90.80 14.91L90.80 14.91Q90.96 14.07 90.96 11.20ZM101.93 12.45L101.93 12.45L101.93 12.45Q101.93 10.70 103.01 9.34L103.01 9.34L103.01 9.34Q104.16 7.87 105.87 7.87L105.87 7.87L105.87 7.87Q107.25 7.87 107.94 8.85L107.94 8.85L107.94 8.85Q108.54 9.70 108.54 11.13L108.54 11.13L108.54 11.13Q108.54 12.68 107.60 14L107.60 14L107.60 14Q106.57 15.46 105.03 15.46L105.03 15.46L105.03 15.46Q103.88 15.46 102.91 14.52L102.91 14.52L102.91 14.52Q101.93 13.58 101.93 12.45ZM103.88 11.28L103.88 11.28L103.88 11.28Q103.88 12.46 105.45 13.76L105.45 13.76L105.63 13.76L105.63 13.76Q105.77 13.78 105.80 13.78L105.80 13.78L105.80 13.78Q106.29 13.78 106.53 13.26L106.53 13.26L106.53 13.26Q106.71 12.87 106.71 12.31L106.71 12.31L106.71 12.31Q106.71 11.34 106.40 10.58L106.40 10.58L106.40 10.58Q105.97 9.53 105.15 9.53L105.15 9.53L105.15 9.53Q104.80 9.53 104.62 10.04L104.62 10.04L104.62 10.04Q104.57 10.30 104.43 10.84L104.43 10.84L104.43 10.84Q104.30 11.28 103.88 11.28ZM110.19 10.53L110.19 10.53L110.19 10.53Q110.01 10.53 109.66 10.76L109.66 10.76L109.66 10.76Q109.31 10.99 109.14 10.99L109.14 10.99L109.14 10.26L109.14 10.26Q109.14 10.05 110.42 8.99L110.42 8.99L110.42 8.99Q111.75 7.87 112.17 7.87L112.17 7.87L112.17 7.87Q112.50 7.87 112.88 9.35L112.88 9.35L112.88 9.35Q113.29 10.93 113.62 11.10L113.62 11.10L113.62 11.10Q114.04 10.77 114.74 9.66L114.74 9.66L114.74 9.66Q115.53 8.43 115.93 7.98L115.93 7.98L115.93 7.98Q116.68 7.17 117.47 7.17L117.47 7.17L117.47 7.17Q118.12 7.17 118.12 7.39L118.12 7.39L118.12 7.42L118.12 7.42Q118.10 7.45 118.10 7.46L118.10 7.46L118.10 7.46Q116.93 8.72 116.14 9.84L116.14 9.84L116.14 9.84Q115.81 10.32 115.32 12.04L115.32 12.04L115.32 12.04Q114.90 13.50 114.18 14.04L114.18 14.04L114.18 14.04Q112.36 15.44 112.22 15.44L112.22 15.44L111.94 15.44L111.94 15.44Q111.94 14.69 111.80 14.17L111.80 14.17L111.80 14.17Q111.65 13.65 111.24 12.22L111.24 12.22L111.24 12.22Q110.78 10.53 110.19 10.53ZM118.52 14.32L118.52 10.99L118.52 10.99Q118.34 10.99 117.99 11.14L117.99 11.14L117.99 11.14Q117.63 11.28 117.45 11.28L117.45 11.28L117.45 11.28Q117.45 10.40 118.93 9.45L118.93 9.45L118.93 9.45Q120.30 8.57 121.21 8.57L121.21 8.57L121.21 8.57Q121.21 8.86 120.76 9.84L120.76 9.84L120.76 10.36L120.76 10.36Q120.76 10.37 120.75 10.72L120.75 10.72L120.75 10.72Q120.75 10.81 120.75 10.89L120.75 10.89L120.75 10.89Q120.75 11.76 120.76 11.94L120.76 11.94L120.76 11.94Q120.81 12.50 120.90 12.50L120.90 12.50L121.18 12.50L122.72 11.52L122.72 11.52Q122.75 11.51 122.79 11.51L122.79 11.51L122.79 11.51Q123.02 11.51 123.02 12.17L123.02 12.17L123.02 12.17Q123.02 12.98 121.70 14.22L121.70 14.22L121.70 14.22Q120.37 15.46 119.55 15.46L119.55 15.46L119.55 15.46Q118.52 15.46 118.52 14.32L118.52 14.32ZM119.52 6.48L119.52 6.48L119.52 6.20L119.52 6.20Q119.52 6.10 119.50 6.01L119.50 6.01L119.50 5.92L119.50 5.92Q119.48 5.88 119.24 5.74L119.24 5.74L119.24 5.74Q119.07 5.64 119.07 5.50L119.07 5.50L119.07 5.50Q119.07 5.53 119.08 5.36L119.08 5.36L120.18 4.59L120.18 4.59Q120.96 4.09 121.48 4.09L121.48 4.09L121.48 4.09Q121.74 4.09 121.74 4.45L121.74 4.45L121.74 4.45Q121.74 5.74 120.06 7.60L120.06 7.60L120.06 7.60Q119.31 8.44 119.22 8.44L119.22 8.44L118.90 8.44L118.90 8.44Q118.90 8.15 119.21 7.48L119.21 7.48L119.21 7.48Q119.52 6.82 119.52 6.48ZM123.19 12.82L123.19 12.82L123.19 12.82Q123.19 11.07 124.52 9.75L124.52 9.75L124.52 9.75Q125.86 8.43 127.61 8.43L127.61 8.43L127.61 8.43Q128.27 8.43 128.54 8.68L128.54 8.68L128.54 8.68Q128.81 8.93 128.81 9.58L128.81 9.58L128.81 9.58Q128.81 10.50 127.76 11.28L127.76 11.28L127.76 11.28Q126.88 11.82 126.00 12.36L126.00 12.36L125.86 12.50L125.86 12.50Q125.86 12.53 125.85 12.57L125.85 12.57L125.85 12.57Q125.85 12.80 126.17 13.05L126.17 13.05L126.17 13.05Q126.43 13.26 126.70 13.34L126.70 13.34L126.77 13.34L126.77 13.34Q127.19 13.34 128.06 12.69L128.06 12.69L128.06 12.69Q128.93 12.04 129.11 12.04L129.11 12.04L129.11 12.04Q129.11 13.23 127.88 14.34L127.88 14.34L127.88 14.34Q126.64 15.46 125.44 15.46L125.44 15.46L125.44 15.46Q124.39 15.46 123.76 14.64L123.76 14.64L123.76 14.64Q123.19 13.90 123.19 12.82ZM125.72 10.12L125.72 10.12L125.72 10.12Q125.22 10.81 125.22 11.56L125.22 11.56L125.22 11.56Q125.50 11.56 125.90 11.14L125.90 11.14L125.90 11.14Q126.29 10.71 126.29 10.42L126.29 10.42L126.29 10.42Q126.29 10.11 125.93 10.11L125.93 10.11L125.83 10.11L125.83 10.11Q125.73 10.12 125.72 10.12ZM134.89 13.01L134.89 13.01L134.89 13.01Q134.89 12.14 133.90 11.52L133.90 11.52L133.90 11.52Q132.61 10.71 132.72 10.02L132.72 10.02L132.72 10.02Q132.78 9.70 133.18 9.35L133.18 9.35L133.18 9.35Q133.66 9.02 133.78 8.92L133.78 8.92L133.78 8.92Q134.08 8.67 134.12 8.44L134.12 8.44L134.12 8.44Q134.19 8.05 133.59 8.05L133.59 8.05L133.59 8.05Q132.59 8.05 131.45 8.82L131.45 8.82L131.45 8.82Q130.20 9.66 130.20 10.61L130.20 10.61L130.20 10.61Q130.20 11.28 131.01 11.83L131.01 11.83L131.01 11.83Q131.99 12.49 131.99 13.23L131.99 13.23L131.99 13.23Q131.99 14.08 130.96 14.66L130.96 14.66L130.96 14.66Q130.33 15.01 130.26 15.33L130.26 15.33L130.26 15.33Q130.17 15.75 131.07 15.75L131.07 15.75L131.07 15.75Q132.33 15.75 133.52 15.02L133.52 15.02L133.52 15.02Q134.89 14.20 134.89 13.01Z"></path></g><!----><g data-v-423bf9ae="" id="5dbed774-4cba-44c1-a871-8107368b3747" transform="matrix(1.1107888963487413,0,0,1.1107888963487413,0.4605551825629348,0.4734483703611474)" stroke="none" fill="white"><path d="M3.849 30l95.848-15.155L97.354.029.208 15.389 2.518 30H0v70h100V30zm69.524-16.055l-5.108.808-.781-4.939 5.109-.808zm4.328-5.747l5.109-.807.78 4.938-5.108.808zM63.156 15.56l-5.108.808-.781-4.938 5.109-.808zm30.821-4.873l-5.278.835-.78-4.939 5.277-.835zm-41.819 1.55l.781 4.939-5.108.808-.781-4.939zm-10.217 1.616l.781 4.938-5.108.808-.781-4.939zm-10.217 1.615l.781 4.939-5.108.808-.781-4.94zm-10.217 1.616l.781 4.938-5.108.808-.781-4.939zM11.29 18.699l.781 4.939-5.362.848-.781-4.939zM84.21 35v4.924h-5.263V35zm-10.526 0v4.924h-5.263V35zm-10.526 0v4.924h-5.263V35zm-10.526 0v4.924h-5.264V35zm-10.527 0v4.924h-5.263V35zM31.58 35v4.924h-5.263V35zm-10.526 0v4.924h-5.264V35zM5 35h5.526v4.924H5zm90 60H5V45h90zm-5.526-55.076V35H95v4.924z"></path><path d="M89.474 60H10.526v5h78.948v-5zM89.474 75H10.526v5h78.948v-5z"></path></g><!----></svg>